<svg xmlns="http://www.w3.org/2000/svg" viewBox="0 0 182.52 299"><defs><style>.cls-1{fill:#390099;}</style></defs><g id="Layer_2" data-name="Layer 2"><g id="Layer_1-2" data-name="Layer 1"><path class="cls-1" d="M182.52,158v49.52A90.23,90.23,0,0,1,176.94,239a91.69,91.69,0,0,1-42.35,49h0a91.39,91.39,0,0,1-129-48A86.31,86.31,0,0,1,.29,218.82,52.61,52.61,0,0,1,0,212.66V24.78a24.41,24.41,0,0,1,1.24-7.7,24.72,24.72,0,0,1,47,0,22.89,22.89,0,0,1,.95,4.24,22,22,0,0,1,.26,3.46v85.28l.18-.22a24.53,24.53,0,0,1,2.58-2.74,23,23,0,0,1,2.81-2.18,29.46,29.46,0,0,1,16.55-5c13.32,0,24.47,8.75,27.12,20.31a28.26,28.26,0,0,1,27.1-3.66.29.29,0,0,0,.1,0A28.24,28.24,0,0,1,143.18,137a26.84,26.84,0,0,1,38,14.08c.06.17.14.35.2.52s.22.64.32,1,.16.55.24.82A17.88,17.88,0,0,1,182.52,158Z"/></g></g></svg>