<svg width="450" height="99" viewBox="0 0 450 99" fill="none" xmlns="http://www.w3.org/2000/svg">
<path d="M102.497 54.3411V54.6873C102.484 54.7686 102.477 54.8506 102.476 54.9328C102.466 54.7462 102.466 54.54 102.497 54.3411Z" fill="#390099"/>
<path d="M102.496 56.5359V56.8796C102.476 56.6832 102.476 56.4746 102.476 56.2806C102.477 56.3661 102.483 56.4514 102.496 56.5359Z" fill="#390099"/>
<path d="M102.497 54.3411V54.6873C102.484 54.7686 102.477 54.8506 102.476 54.9328C102.466 54.7462 102.466 54.54 102.497 54.3411Z" fill="#390099"/>
<path d="M102.496 56.5359V56.8796C102.476 56.6832 102.476 56.4746 102.476 56.2806C102.477 56.3661 102.483 56.4514 102.496 56.5359Z" fill="#390099"/>
<path d="M102.497 54.3411V54.6873C102.484 54.7686 102.477 54.8506 102.476 54.9328C102.466 54.7462 102.466 54.54 102.497 54.3411Z" fill="#390099"/>
<path d="M102.496 56.5359V56.8796C102.476 56.6832 102.476 56.4746 102.476 56.2806C102.477 56.3661 102.483 56.4514 102.496 56.5359Z" fill="#390099"/>
<path d="M166.742 32.1893H166.442C159.881 32.2283 153.603 34.8268 148.984 39.4154C144.366 44.0039 141.783 50.2081 141.803 56.6681C141.823 63.128 144.443 69.3168 149.09 73.8778C153.737 78.4388 160.031 81 166.592 81C173.154 81 179.447 78.4388 184.094 73.8778C188.741 69.3168 191.361 63.128 191.381 56.6681C191.401 50.2081 188.818 44.0039 184.2 39.4154C179.581 34.8268 173.303 32.2283 166.742 32.1893ZM166.742 67.4854C164.692 67.4846 162.682 66.9311 160.929 65.885C159.177 64.839 157.749 63.3403 156.8 61.5516C155.851 59.763 155.418 57.7527 155.548 55.7389C155.677 53.7251 156.365 51.7847 157.535 50.1283C157.918 49.5855 158.349 49.077 158.822 48.6086C160.889 46.576 163.681 45.4199 166.602 45.3876H166.742C169.718 45.3876 172.572 46.5515 174.676 48.6234C176.781 50.6952 177.963 53.5053 177.963 56.4353C177.963 59.3653 176.781 62.1753 174.676 64.2472C172.572 66.319 169.718 67.483 166.742 67.483V67.4854Z" fill="#390099"/>
<path d="M242.236 55.5981V74.0649C242.236 75.8229 241.526 77.509 240.264 78.7521C239.001 79.9952 237.289 80.6935 235.503 80.6935H235.476C233.69 80.6935 231.977 79.9952 230.715 78.7521C229.452 77.509 228.743 75.8229 228.743 74.0649V57.3706C228.743 51.7879 224.297 47.0594 218.629 46.9146C217.238 46.8759 215.853 47.1121 214.556 47.6094C213.26 48.1067 212.078 48.855 211.08 49.8099C210.082 50.7648 209.289 51.907 208.747 53.169C208.205 54.4309 207.926 55.787 207.926 57.157V74.06C207.926 75.818 207.217 77.504 205.954 78.7472C204.692 79.9903 202.979 80.6886 201.193 80.6886C199.408 80.6886 197.695 79.9903 196.433 78.7472C195.17 77.504 194.461 75.818 194.461 74.06V33.6574H194.817V33.6328H205.56C205.87 33.6328 206.178 33.6931 206.465 33.8102C206.752 33.9272 207.013 34.0989 207.233 34.3152C207.453 34.5316 207.627 34.7884 207.746 35.0711C207.865 35.3537 207.926 35.6567 207.926 35.9627C211.061 34.4824 214.487 33.6964 217.963 33.6598H218.257C221.885 33.6564 225.466 34.4648 228.73 36.024C229.58 36.4258 230.403 36.8783 231.197 37.3792C234.917 39.7176 237.915 43.0157 239.864 46.9146C241.215 49.6318 242.02 52.5803 242.236 55.5981Z" fill="#390099"/>
<path d="M128.415 38.5429C128.415 38.6878 128.415 38.8302 128.402 38.975V38.1108C128.4 38.2557 128.415 38.3981 128.415 38.5429Z" fill="#390099"/>
<path d="M138.873 41.3981C138.853 41.3245 138.833 41.2508 138.808 41.1772C138.783 41.1035 138.753 41.0029 138.721 40.9169L138.666 40.7745C138.294 39.8048 137.716 38.9249 136.969 38.1942C136.223 37.4635 135.326 36.899 134.339 36.539C133.351 36.179 132.297 36.0317 131.247 36.1072C130.197 36.1827 129.176 36.4792 128.253 36.9766C127.988 35.7431 127.417 34.5934 126.59 33.6307C125.763 32.6679 124.706 31.9222 123.515 31.4601H123.49C122.268 30.9913 120.945 30.8354 119.646 31.0072C118.346 31.179 117.112 31.6727 116.059 32.4421C115.333 29.3218 112.276 26.96 108.625 26.96C107.01 26.9551 105.429 27.428 104.09 28.3177C103.817 28.4932 103.559 28.6903 103.319 28.9069C103.063 29.1334 102.827 29.3797 102.611 29.6434L102.561 29.7023V6.68627C102.563 6.37396 102.54 6.062 102.491 5.75335C102.446 5.36497 102.362 4.98183 102.242 4.6093C101.799 3.26938 100.937 2.10184 99.7785 1.27388C98.6204 0.445912 97.2259 0 95.7946 0C94.3634 0 92.9689 0.445912 91.8108 1.27388C90.6527 2.10184 89.7904 3.26938 89.3474 4.6093C89.1193 5.27881 89.0023 5.98011 89.0008 6.68627V57.3927C88.9949 57.9478 89.0215 58.5028 89.0806 59.0548C89.3176 61.0089 89.8035 62.9258 90.5269 64.7603C91.7932 68.0502 93.7593 71.0355 96.2934 73.516C98.8276 75.9964 101.871 77.9148 105.22 79.1424C108.569 80.37 112.146 80.8784 115.71 80.6336C119.275 80.3888 122.745 79.3964 125.889 77.723C131.265 74.8512 135.394 70.1471 137.499 64.4927C138.517 61.7749 139.035 58.9 139.028 56.0032V42.6379C139.031 42.2198 138.979 41.803 138.873 41.3981ZM125.427 56.0425C125.198 62.072 119.981 66.9723 113.857 66.9232C110.989 66.8985 108.234 65.8194 106.132 63.8976C104.031 61.9758 102.735 59.3501 102.499 56.5359V56.8796C102.479 56.6832 102.479 56.4745 102.479 56.2806C102.479 56.0867 102.461 55.8362 102.461 55.6079C102.461 55.3796 102.461 55.1685 102.479 54.9401C102.496 54.7118 102.479 54.54 102.499 54.3411V54.6873C102.628 53.1298 103.084 51.6157 103.838 50.2404C104.591 48.8651 105.626 47.6585 106.877 46.6966C108.128 45.7347 109.568 45.0384 111.106 44.6517C112.643 44.265 114.246 44.1962 115.812 44.4497C118.574 44.897 121.075 46.3217 122.846 48.4563C124.616 50.5909 125.534 53.2886 125.427 56.0425Z" fill="#390099"/>
<path d="M245.652 31.627H255.891C256.209 31.627 256.515 31.7517 256.74 31.9736C256.966 32.1956 257.093 32.4965 257.093 32.8104V74.8063C257.093 76.3 256.49 77.7325 255.417 78.7887C254.344 79.8449 252.889 80.4382 251.372 80.4382C249.855 80.4382 248.4 79.8449 247.327 78.7887C246.255 77.7325 245.652 76.3 245.652 74.8063V31.627Z" fill="#390099"/>
<path d="M258.985 12.49C258.985 12.6201 258.985 12.7527 258.985 12.8828C258.923 14.0496 258.586 15.1862 258 16.202L257.928 16.3272L252.94 24.8487C252.774 25.1327 252.534 25.3685 252.246 25.5324C251.957 25.6963 251.63 25.7826 251.297 25.7826C250.964 25.7826 250.637 25.6963 250.348 25.5324C250.06 25.3685 249.82 25.1327 249.654 24.8487L244.667 16.3272L244.594 16.202C244.006 15.1866 243.667 14.05 243.604 12.8828C243.604 12.7527 243.604 12.6201 243.604 12.49C243.604 10.48 244.415 8.55233 245.859 7.13104C247.303 5.70976 249.261 4.91129 251.302 4.91129C253.344 4.91129 255.302 5.70976 256.745 7.13104C258.189 8.55233 259 10.48 259 12.49H258.985Z" fill="#FF8431"/>
<path d="M69.4698 0H10.5302C4.71455 0 0 4.77348 0 10.6619V70.3381C0 76.2265 4.71455 81 10.5302 81H69.4698C75.2855 81 80 76.2265 80 70.3381V10.6619C80 4.77348 75.2855 0 69.4698 0Z" fill="url(#paint0_linear_14_53)"/>
<path d="M54.1167 40.552V48.393C54.1218 50.0934 53.8256 51.7809 53.2423 53.3754C52.0422 56.6916 49.689 59.4509 46.6237 61.1364C44.8307 62.119 42.8509 62.702 40.8171 62.846C38.7833 62.99 36.7426 62.6919 34.8319 61.9715C32.9213 61.2511 31.185 60.1253 29.7396 58.6694C28.2942 57.2136 27.1731 55.4615 26.4516 53.5308C26.0387 52.4544 25.7621 51.3293 25.6284 50.1825C25.5941 49.8588 25.5786 49.5333 25.5819 49.2077V19.4638C25.5807 18.5308 25.9084 17.628 26.506 16.9178C27.1036 16.2076 27.9318 15.7367 28.8418 15.5897C29.7517 15.4426 30.6836 15.6292 31.4699 16.1158C32.2561 16.6024 32.845 17.357 33.1307 18.244C33.2016 18.4631 33.2515 18.6887 33.2795 18.9175C33.3122 19.0978 33.3308 19.2805 33.3353 19.4638V32.9653L33.3632 32.9324C33.4859 32.7767 33.6212 32.6318 33.7679 32.4991C33.9035 32.3705 34.0498 32.2539 34.2051 32.1506C34.969 31.6291 35.8699 31.3518 36.7912 31.3547C37.7523 31.3304 38.6935 31.6346 39.4631 32.2181C40.2326 32.8016 40.7856 33.6305 41.033 34.5712C41.6326 34.1183 42.3362 33.8274 43.0775 33.7261C43.8189 33.6248 44.5735 33.7162 45.2702 33.992C45.9492 34.2638 46.5512 34.7015 47.0227 35.266C47.4942 35.8304 47.8205 36.5042 47.9725 37.2272C48.499 36.9338 49.0816 36.7585 49.6809 36.7134C50.2801 36.6682 50.882 36.7542 51.4455 36.9656C52.009 37.1769 52.521 37.5086 52.9466 37.9381C53.3722 38.3676 53.7015 38.8849 53.9121 39.4547L53.94 39.5395C53.94 39.5913 53.9772 39.6431 53.9912 39.6949C54.0057 39.7366 54.0181 39.7791 54.0284 39.8221C54.0887 40.0605 54.1184 40.3059 54.1167 40.552Z" fill="white"/>
<path d="M302.358 38.8125C302.093 36.3314 300.975 34.3996 299.006 33.017C297.055 31.6345 294.517 30.9432 291.392 30.9432C289.195 30.9432 287.311 31.2746 285.739 31.9375C284.167 32.6004 282.964 33.5 282.131 34.6364C281.297 35.7727 280.871 37.0701 280.852 38.5284C280.852 39.7405 281.127 40.7917 281.676 41.6818C282.244 42.572 283.011 43.3295 283.977 43.9545C284.943 44.5606 286.013 45.072 287.188 45.4886C288.362 45.9053 289.545 46.2557 290.739 46.5398L296.193 47.9034C298.39 48.4148 300.502 49.1061 302.528 49.9773C304.574 50.8485 306.402 51.947 308.011 53.2727C309.64 54.5985 310.928 56.1989 311.875 58.0739C312.822 59.9489 313.295 62.1458 313.295 64.6648C313.295 68.0739 312.424 71.0758 310.682 73.6705C308.939 76.2462 306.42 78.2633 303.125 79.7216C299.848 81.161 295.881 81.8807 291.222 81.8807C286.695 81.8807 282.765 81.1799 279.432 79.7784C276.117 78.3769 273.523 76.3314 271.648 73.642C269.792 70.9527 268.788 67.6761 268.636 63.8125H279.006C279.157 65.839 279.782 67.5246 280.881 68.8693C281.979 70.214 283.409 71.2178 285.17 71.8807C286.951 72.5436 288.939 72.875 291.136 72.875C293.428 72.875 295.436 72.5341 297.159 71.8523C298.902 71.1515 300.265 70.1856 301.25 68.9545C302.235 67.7045 302.737 66.2462 302.756 64.5795C302.737 63.0644 302.292 61.8144 301.42 60.8295C300.549 59.8258 299.328 58.9924 297.756 58.3295C296.203 57.6477 294.384 57.0417 292.301 56.5114L285.682 54.8068C280.89 53.5758 277.102 51.7102 274.318 49.2102C271.553 46.6913 270.17 43.3485 270.17 39.1818C270.17 35.7538 271.098 32.7519 272.955 30.1761C274.83 27.6004 277.377 25.6023 280.597 24.1818C283.816 22.7424 287.462 22.0227 291.534 22.0227C295.663 22.0227 299.28 22.7424 302.386 24.1818C305.511 25.6023 307.964 27.5814 309.744 30.1193C311.525 32.6383 312.443 35.536 312.5 38.8125H302.358ZM322.237 81V37.3636H332.521V81H322.237ZM327.408 31.1705C325.779 31.1705 324.377 30.6307 323.203 29.5511C322.029 28.4526 321.442 27.1364 321.442 25.6023C321.442 24.0492 322.029 22.733 323.203 21.6534C324.377 20.5549 325.779 20.0057 327.408 20.0057C329.055 20.0057 330.457 20.5549 331.612 21.6534C332.786 22.733 333.374 24.0492 333.374 25.6023C333.374 27.1364 332.786 28.4526 331.612 29.5511C330.457 30.6307 329.055 31.1705 327.408 31.1705ZM362.074 98.2727C358.381 98.2727 355.208 97.7708 352.557 96.767C349.905 95.7822 347.775 94.4564 346.165 92.7898C344.555 91.1231 343.438 89.2765 342.812 87.25L352.074 85.0057C352.491 85.858 353.097 86.7008 353.892 87.5341C354.688 88.3864 355.758 89.0871 357.102 89.6364C358.466 90.2045 360.18 90.4886 362.244 90.4886C365.161 90.4886 367.576 89.7784 369.489 88.358C371.402 86.9564 372.358 84.6458 372.358 81.4261V73.1591H371.847C371.316 74.2197 370.54 75.3087 369.517 76.4261C368.513 77.5436 367.178 78.4811 365.511 79.2386C363.864 79.9962 361.79 80.375 359.29 80.375C355.938 80.375 352.898 79.589 350.17 78.017C347.462 76.4261 345.303 74.0587 343.693 70.9148C342.102 67.7519 341.307 63.7936 341.307 59.0398C341.307 54.2481 342.102 50.2045 343.693 46.9091C345.303 43.5947 347.472 41.0852 350.199 39.3807C352.926 37.6572 355.966 36.7955 359.318 36.7955C361.875 36.7955 363.977 37.2311 365.625 38.1023C367.292 38.9545 368.617 39.9867 369.602 41.1989C370.587 42.392 371.335 43.5189 371.847 44.5795H372.415V37.3636H382.557V81.7102C382.557 85.4413 381.667 88.5284 379.886 90.9716C378.106 93.4148 375.672 95.2424 372.585 96.4545C369.498 97.6667 365.994 98.2727 362.074 98.2727ZM362.159 72.3068C364.337 72.3068 366.193 71.7765 367.727 70.7159C369.261 69.6553 370.426 68.1307 371.222 66.142C372.017 64.1534 372.415 61.767 372.415 58.983C372.415 56.2367 372.017 53.8314 371.222 51.767C370.445 49.7027 369.29 48.1023 367.756 46.9659C366.241 45.8106 364.375 45.233 362.159 45.233C359.867 45.233 357.955 45.8295 356.42 47.0227C354.886 48.2159 353.731 49.8542 352.955 51.9375C352.178 54.0019 351.79 56.3504 351.79 58.983C351.79 61.6534 352.178 63.9924 352.955 66C353.75 67.9886 354.915 69.5417 356.449 70.6591C358.002 71.7576 359.905 72.3068 362.159 72.3068ZM403.381 55.4318V81H393.097V37.3636H402.926V44.7784H403.438C404.441 42.3352 406.042 40.3939 408.239 38.9545C410.455 37.5152 413.191 36.7955 416.449 36.7955C419.46 36.7955 422.083 37.4394 424.318 38.7273C426.572 40.0152 428.314 41.8807 429.545 44.3239C430.795 46.767 431.411 49.7311 431.392 53.2159V81H421.108V54.8068C421.108 51.8902 420.35 49.608 418.835 47.9602C417.339 46.3125 415.265 45.4886 412.614 45.4886C410.814 45.4886 409.214 45.8864 407.812 46.6818C406.43 47.4583 405.341 48.5852 404.545 50.0625C403.769 51.5398 403.381 53.3295 403.381 55.4318Z" fill="#FF8431"/>
<defs>
<linearGradient id="paint0_linear_14_53" x1="5.76744" y1="4.7093" x2="74.2344" y2="74.5364" gradientUnits="userSpaceOnUse">
<stop stop-color="#390099"/>
<stop offset="1" stop-color="#8816FF"/>
</linearGradient>
</defs>
</svg>
