<svg xmlns="http://www.w3.org/2000/svg" xmlns:xlink="http://www.w3.org/1999/xlink" viewBox="0 0 172 172"><defs><style>.cls-1{fill:url(#linear-gradient);}.cls-2{fill:#fff;}</style><linearGradient id="linear-gradient" x1="12.4" y1="10" x2="157.74" y2="160.08" gradientUnits="userSpaceOnUse"><stop offset="0" stop-color="#390099"/><stop offset="1" stop-color="#8816ff"/></linearGradient></defs><g id="Layer_2" data-name="Layer 2"><g id="Layer_1-2" data-name="Layer 1"><rect class="cls-1" width="172" height="172" rx="22.64"/><path class="cls-2" d="M116.68,88.85V105.5a30.2,30.2,0,0,1-1.88,10.58,30.82,30.82,0,0,1-14.23,16.48h0a30.73,30.73,0,0,1-43.37-16.15,29.05,29.05,0,0,1-1.77-7.11,17.72,17.72,0,0,1-.1-2.07V44.07a8.32,8.32,0,0,1,16.23-2.59,7.6,7.6,0,0,1,.32,1.43A7.46,7.46,0,0,1,72,44.07V72.74l.06-.07a7.53,7.53,0,0,1,.87-.92,7,7,0,0,1,.94-.74,9.89,9.89,0,0,1,5.56-1.69,9.2,9.2,0,0,1,9.12,6.83,9.47,9.47,0,0,1,9.11-1.23h0a9.52,9.52,0,0,1,5.81,6.87,9,9,0,0,1,12.77,4.73l.06.18c0,.11.08.22.11.33a2.76,2.76,0,0,1,.08.27A6.08,6.08,0,0,1,116.68,88.85Z"/></g></g></svg>